<svg width="1444" height="1683" viewBox="0 0 1444 1683" fill="none" xmlns="http://www.w3.org/2000/svg">
<g clip-path="url(#clip0)">
<path d="M905.529 448.712C890.392 441.152 862.047 479.1 890.392 483.844C899.741 485.474 911.91 477.914 916.956 470.206C923.189 460.719 920.518 444.561 905.529 448.712Z" fill="#EBF2FF"/>
<path d="M771.816 449.605C771.816 474.212 804.613 487.701 798.232 455.09C796.896 448.123 793.038 434.188 784.134 433.744C776.862 433.447 771.816 443.527 771.816 449.605Z" fill="#EBF2FF"/>
<path d="M833.701 524.021C828.061 523.131 820.196 520.611 816.04 525.948C811.588 531.729 815.595 537.214 820.79 539.882C835.927 548.331 847.502 526.096 833.701 524.021Z" fill="#EBF2FF"/>
<path d="M818.416 354.586C851.213 361.256 884.455 357.254 917.252 352.51C923.485 351.621 944.558 344.654 950.494 347.322C958.507 351.028 951.829 363.924 949.307 371.929C944.558 387.049 923.039 431.816 949.01 438.931C960.585 442.044 966.373 429.296 975.425 430.185C982.549 430.926 985.814 440.71 995.46 436.411C1008.67 430.482 1007.18 407.061 1006.14 395.35C1003.92 368.668 992.492 342.579 973.941 323.16C960.288 308.929 942.925 298.405 924.227 292.624C910.574 288.473 896.03 287.287 882.08 289.362C825.984 297.812 823.907 263.57 805.653 270.981C796.898 274.539 797.491 283.433 790.813 288.473C786.064 292.031 778.644 290.548 773.45 293.513C756.829 303 762.32 325.68 774.192 336.205C786.213 346.729 803.13 351.473 818.416 354.586Z" fill="#EBF2FF"/>
<path d="M747.628 689.742C770.482 707.086 800.162 710.792 828.507 719.093C859.523 728.135 889.352 740.439 922.297 737.029C954.203 733.768 983.884 720.723 1012.67 707.382C1042.65 693.448 1073.37 678.477 1100.68 659.947C1110.92 652.98 1116.41 644.234 1101.42 639.046C1088.06 634.451 1070.55 639.194 1057.79 643.79C1025.73 655.352 998.724 683.072 964.443 687.222C786.806 708.272 752.525 647.94 741.692 630.449C736.646 622.444 732.788 615.625 722.103 618.293C697.617 624.074 723.587 662.912 730.858 672.992C735.904 679.662 741.543 685.147 747.628 689.742Z" fill="#EBF2FF"/>
<path d="M409.865 1081.23C520.277 1189.59 586.613 1078.86 584.09 1067.44C580.825 1051.73 535.117 1045.21 521.909 1043.13C502.172 1040.02 388.496 1041.06 409.865 1081.23Z" fill="#EBF2FF"/>
<path d="M286.394 672.844C298.86 679.663 319.784 697.154 334.922 694.783C354.362 691.67 351.394 669.583 342.193 658.02C332.547 646.162 314.293 638.75 299.008 642.456C287.581 645.42 270.218 664.098 286.394 672.844Z" fill="#EBF2FF"/>
<path d="M266.211 515.271C266.953 504.746 274.076 478.212 268.585 468.725C262.946 459.09 254.339 465.316 251.222 472.431C248.403 479.101 245.731 513.344 248.848 518.976C253.3 526.685 265.617 524.609 266.211 515.271Z" fill="#EBF2FF"/>
<path d="M704.592 1302.55C716.464 1320.63 939.661 1340.35 954.947 1343.31C965.335 1345.39 992.047 1356.95 1001.69 1352.95C1014.16 1347.76 1004.51 1328.78 1002.58 1319.45C999.171 1303.14 1003.03 1187.37 987.299 1179.07C942.629 1155.65 704.295 1126.44 693.165 1138.9C684.409 1148.83 694.945 1287.72 704.592 1302.55Z" fill="#EBF2FF"/>
<path d="M1287.81 1130.3C1306.96 1144.23 1295.83 1094.43 1294.34 1088.94C1289.3 1069.37 1263.92 985.769 1252.94 943.967C1240.62 946.784 1230.53 975.541 1227.56 985.918C1222.37 1003.71 1221.77 1022.53 1225.34 1040.62C1232.76 1077.53 1257.84 1108.51 1287.81 1130.3Z" fill="#EBF2FF"/>
<path d="M1145.05 1096.65C1156.48 1105.1 1178 1121.55 1189.57 1103.77C1199.66 1088.35 1180.82 1073.08 1169.09 1065.82C1158.11 1059 1138.67 1048.18 1126.5 1057.07C1107.21 1071.01 1134.07 1088.65 1145.05 1096.65Z" fill="#EBF2FF"/>
<path d="M1032.26 791.432C1012.38 819.596 1031.08 856.21 1039.98 882.151C1045.77 899.05 1047.1 919.654 1056.16 935.219C1064.47 949.45 1082.57 955.972 1090.59 937.443C1096.97 922.323 1068.33 740.291 1032.26 791.432Z" fill="#EBF2FF"/>
<path d="M1271.93 1414.46C1259.32 1426.91 1253.53 1448.85 1273.12 1458.04C1290.19 1466.05 1312.74 1458.19 1326.4 1447.22C1341.83 1434.92 1350.29 1410.61 1327.44 1400.82C1311.11 1393.71 1285.74 1400.82 1271.93 1414.46Z" fill="#EBF2FF"/>
<path d="M1218.21 1375.18C1239.29 1365.25 1261.1 1359.62 1283.95 1355.76C1290.63 1354.58 1300.28 1354.73 1300.13 1345.24C1299.98 1337.53 1294.05 1337.68 1287.96 1337.53C1267.78 1337.09 1244.33 1345.53 1225.78 1352.8C1219.84 1355.17 1205.75 1358.28 1204.71 1365.99C1203.82 1372.81 1212.28 1378.15 1218.21 1375.18Z" fill="#EBF2FF"/>
<path d="M981.51 1409.42C1002.88 1453.45 1024.69 1497.92 1055.41 1536.16C1062.98 1545.65 1088.06 1581.52 1102.01 1576.04C1120.56 1568.63 1079.16 1537.2 1073.52 1530.09C1059.57 1512.45 1047.4 1492.43 1035.23 1473.61C1025.73 1458.93 1018.02 1443.22 1010.15 1427.66C1006.89 1420.98 1000.95 1400.68 994.124 1397.27C986.555 1393.41 977.503 1401.27 981.51 1409.42Z" fill="#EBF2FF"/>
<path d="M664.077 1479.84C683.221 1462.05 699.991 1441.74 713.792 1419.5C718.096 1412.54 730.858 1396.97 728.187 1388.38C725.219 1379.04 717.799 1380.67 712.308 1385.56C705.482 1391.64 700.584 1407.2 695.39 1415.21C687.97 1426.62 679.66 1437.44 670.607 1447.67C665.71 1453.15 650.424 1463.68 649.089 1470.79C647.456 1479.09 657.251 1486.21 664.077 1479.84Z" fill="#EBF2FF"/>
<path d="M794.525 1573.37C800.906 1577.67 807.585 1571.59 807.585 1564.92C807.436 1556.62 790.518 1548.32 785.027 1543.43C776.717 1536.02 769.148 1527.72 762.47 1518.82C757.573 1512.3 750.746 1493.47 743.623 1490.06C737.39 1486.95 730.564 1491.25 729.97 1498.07C729.228 1505.63 740.358 1518.52 744.365 1524.31C757.87 1543.43 775.084 1560.18 794.525 1573.37Z" fill="#EBF2FF"/>
<path d="M314.295 491.703C333.143 490.518 349.467 475.991 351.99 457.165C353.325 446.788 350.357 436.708 344.273 429.148C340.859 422.033 335.22 416.252 328.245 412.991C329.729 388.087 331.213 363.184 332.697 338.281C333.439 326.718 336.111 311.747 322.012 307.448C316.521 305.817 310.289 306.262 304.501 305.966C297.971 305.669 291.293 305.373 284.763 304.928C278.679 304.631 274.078 311.45 274.523 316.935C274.969 323.605 280.46 326.867 286.544 327.163C291.887 327.46 297.229 327.756 302.572 327.904C305.094 328.052 307.469 328.201 309.992 328.201C310.289 328.201 310.882 328.349 311.327 328.349C311.179 329.535 311.031 330.721 311.031 331.758C310.882 335.464 310.585 339.17 310.437 342.876C309.992 350.288 309.547 357.699 309.101 365.111C308.211 379.935 307.32 394.758 306.43 409.433C306.43 409.73 306.43 410.174 306.43 410.471C296.784 412.398 288.325 418.031 282.834 426.777C273.633 436.264 270.22 450.642 273.781 464.132C278.234 482.068 296.042 492.741 314.295 491.703ZM315.779 454.497C315.928 454.348 315.928 454.497 315.779 454.497V454.497Z" fill="#FF7062"/>
<path d="M790.519 358.59C780.428 394.611 774.195 431.521 772.117 468.876C771.227 484.441 771.078 500.154 774.64 515.274C778.202 530.394 786.067 545.069 798.681 554.26C813.967 565.525 834.595 567.452 853.293 563.895C871.992 560.189 889.207 551.591 906.125 542.994" stroke="#4F5665" stroke-width="2.8" stroke-miterlimit="10" stroke-linecap="round" stroke-linejoin="round"/>
<path d="M805.506 408.25C804.319 412.104 803.873 416.255 804.17 420.257C804.912 417.737 805.654 415.217 806.396 412.697" stroke="#4F5665" stroke-width="2.8" stroke-miterlimit="10" stroke-linecap="round" stroke-linejoin="round"/>
<path d="M875.404 421.592C874.068 425.297 873.475 429.448 873.772 433.45C875.553 430.486 876.443 426.928 875.998 423.519" stroke="#4F5665" stroke-width="2.8" stroke-miterlimit="10" stroke-linecap="round" stroke-linejoin="round"/>
<path d="M800.163 379.492C806.099 379.641 812.035 379.641 817.674 381.419C823.314 383.198 828.656 386.608 831.328 391.944C835.038 399.504 832.515 408.398 829.695 416.403C825.243 429.151 820.494 441.899 815.448 454.351C814.41 456.871 813.519 459.835 814.855 462.059C815.597 463.245 816.932 463.986 818.268 464.727C821.385 466.358 824.353 467.84 827.469 469.471" stroke="#4F5665" stroke-width="2.8" stroke-miterlimit="10" stroke-linecap="round" stroke-linejoin="round"/>
<path d="M860.713 391.648C874.96 390.906 889.503 394.168 902.117 400.838" stroke="#4F5665" stroke-width="2.8" stroke-miterlimit="10" stroke-linecap="round" stroke-linejoin="round"/>
<path d="M816.488 488.744C829.696 490.078 842.904 491.857 855.963 493.784C854.034 500.01 848.543 504.606 842.459 506.384C836.226 508.015 829.399 506.829 823.76 503.864C819.308 501.493 815.301 493.34 814.411 488.448" stroke="#4F5665" stroke-width="2.8" stroke-miterlimit="10" stroke-linecap="round" stroke-linejoin="round"/>
<path d="M832.07 280.176C831.773 269.207 822.424 259.127 811.442 258.089C800.46 257.052 789.478 265.204 787.252 276.026C785.026 286.847 791.853 298.705 802.241 302.115C802.835 292.331 796.602 282.4 787.549 278.546C778.497 274.691 767.07 277.211 760.392 284.623C752.675 293.073 752.081 306.562 756.83 316.938C761.579 327.463 770.78 335.319 780.723 341.101C796.157 350.143 813.668 355.035 831.328 357.555C863.828 362.298 908.349 359.778 939.514 349.55" stroke="#4F5665" stroke-width="2.8" stroke-miterlimit="10" stroke-linecap="round" stroke-linejoin="round"/>
<path d="M841.569 329.094C850.919 337.098 863.385 340.508 875.554 341.101C887.723 341.545 899.892 339.322 911.913 336.95" stroke="#4F5665" stroke-width="2.8" stroke-miterlimit="10" stroke-linecap="round" stroke-linejoin="round"/>
<path d="M880.746 326.572C889.057 326.869 897.516 326.276 905.678 324.794" stroke="#4F5665" stroke-width="2.8" stroke-miterlimit="10" stroke-linecap="round" stroke-linejoin="round"/>
<path d="M835.633 287.735C857.299 272.319 885.199 265.796 911.466 269.947C937.733 274.097 962.219 288.773 978.247 310.118C982.402 306.709 986.705 303.003 991.899 301.966C997.093 300.78 1003.62 303.151 1005.11 308.34C1008.08 317.827 993.68 324.053 992.196 333.984C997.687 327.314 1010.3 329.389 1013.27 337.542C1016.24 345.695 1007.33 355.33 999.023 353.106" stroke="#4F5665" stroke-width="2.8" stroke-miterlimit="10" stroke-linecap="round" stroke-linejoin="round"/>
<path d="M1002.44 363.63C1011.49 391.498 1010.75 422.479 1000.66 450.05" stroke="#4F5665" stroke-width="2.8" stroke-miterlimit="10" stroke-linecap="round" stroke-linejoin="round"/>
<path d="M951.386 355.923C935.507 383.94 930.61 418.034 937.733 449.459" stroke="#4F5665" stroke-width="2.8" stroke-miterlimit="10" stroke-linecap="round" stroke-linejoin="round"/>
<path d="M960.735 439.086C965.484 433.897 974.685 434.935 979.731 439.827C984.777 444.718 986.409 452.278 986.112 459.394C985.815 469.177 982.402 479.109 975.427 486.224C968.452 493.339 958.064 496.897 948.418 494.525" stroke="#4F5665" stroke-width="2.8" stroke-miterlimit="10" stroke-linecap="round" stroke-linejoin="round"/>
<path d="M958.211 465.321C961.476 463.246 965.038 461.615 968.896 460.726" stroke="#4F5665" stroke-width="2.8" stroke-miterlimit="10" stroke-linecap="round" stroke-linejoin="round"/>
<path d="M966.969 505.345C961.33 543.738 956.581 582.279 952.723 620.968" stroke="#4F5665" stroke-width="2.8" stroke-miterlimit="10" stroke-linecap="round" stroke-linejoin="round"/>
<path d="M796.752 556.339C794.675 582.28 791.707 608.221 787.997 633.865" stroke="#4F5665" stroke-width="2.8" stroke-miterlimit="10" stroke-linecap="round" stroke-linejoin="round"/>
<path d="M798.236 580.053C817.528 589.392 839.937 593.097 860.565 587.316C881.193 581.535 899.298 565.526 904.64 544.773C876.147 566.119 836.672 572.196 802.985 560.338C801.797 559.893 800.165 559.596 799.423 560.634C799.126 561.079 798.978 561.672 798.978 562.265C798.384 568.342 797.939 574.568 797.345 580.646" fill="#4F5665"/>
<path d="M798.236 580.053C817.528 589.392 839.937 593.097 860.565 587.316C881.193 581.535 899.298 565.526 904.64 544.773C876.147 566.119 836.672 572.196 802.985 560.338C801.797 559.893 800.165 559.596 799.423 560.634C799.126 561.079 798.978 561.672 798.978 562.265C798.384 568.342 797.939 574.568 797.345 580.646" stroke="#4F5665" stroke-width="2.8" stroke-miterlimit="10" stroke-linecap="round" stroke-linejoin="round"/>
<path d="M770.187 537.957C749.856 545.368 733.383 562.415 726.853 583.02C720.324 603.624 723.885 627.046 736.203 644.834" stroke="#4F5665" stroke-width="2.8" stroke-miterlimit="10" stroke-linecap="round" stroke-linejoin="round"/>
<path d="M747.48 653.136C763.508 671.073 786.51 680.856 808.77 690.195" stroke="#4F5665" stroke-width="2.8" stroke-miterlimit="10" stroke-linecap="round" stroke-linejoin="round"/>
<path d="M791.112 565.379C779.685 568.936 770.336 578.572 766.923 589.986C763.51 601.4 766.181 614.593 773.898 623.783C784.137 636.235 802.687 642.016 808.03 657.284" stroke="#4F5665" stroke-width="2.8" stroke-miterlimit="10" stroke-linecap="round" stroke-linejoin="round"/>
<path d="M820.94 659.511C836.819 646.319 857.744 640.834 878.372 638.017C897.664 635.349 917.105 634.312 936.545 632.681C945.746 631.94 955.244 630.902 963.851 627.196C972.459 623.639 980.176 616.968 983.144 608.222C985.963 599.625 983.886 590.138 979.434 582.281C974.982 574.425 968.749 567.902 962.516 561.528" stroke="#4F5665" stroke-width="2.8" stroke-miterlimit="10" stroke-linecap="round" stroke-linejoin="round"/>
<path d="M860.266 665.14C890.54 647.203 928.679 653.429 963.702 649.279C973.942 648.093 984.627 645.721 992.938 639.643C1001.4 633.566 1007.04 622.893 1004.66 612.813" stroke="#4F5665" stroke-width="2.8" stroke-miterlimit="10" stroke-linecap="round" stroke-linejoin="round"/>
<path d="M997.836 582.428C998.727 583.465 999.47 584.651 1000.36 585.689" stroke="#4F5665" stroke-width="2.8" stroke-miterlimit="10" stroke-linecap="round" stroke-linejoin="round"/>
<path d="M827.767 695.827C868.429 709.465 913.544 709.317 954.057 695.383C1000.51 679.373 1040.72 646.169 1089.1 637.275C1091.18 636.83 1093.41 636.385 1094.74 634.903C1095.63 633.865 1095.93 632.383 1096.08 630.9C1097.41 620.672 1093.56 610.592 1089.25 601.402C1079.31 580.204 1066.1 560.193 1048.14 545.073C1030.19 529.953 1007.33 520.021 983.886 520.614" stroke="#4F5665" stroke-width="2.8" stroke-miterlimit="10" stroke-linecap="round" stroke-linejoin="round"/>
<path d="M802.539 708.87C794.97 767.126 773.155 823.307 739.468 871.483" stroke="#4F5665" stroke-width="2.8" stroke-miterlimit="10" stroke-linecap="round" stroke-linejoin="round"/>
<path d="M730.861 885.268C729.674 887.491 728.635 889.863 727.448 892.087" stroke="#4F5665" stroke-width="2.8" stroke-miterlimit="10" stroke-linecap="round" stroke-linejoin="round"/>
<path d="M825.541 715.54C822.721 778.095 827.915 841.095 840.975 902.316" stroke="#4F5665" stroke-width="2.8" stroke-miterlimit="10" stroke-linecap="round" stroke-linejoin="round"/>
<path d="M847.951 921.439C847.06 923.663 847.654 926.479 849.286 928.258" stroke="#4F5665" stroke-width="2.8" stroke-miterlimit="10" stroke-linecap="round" stroke-linejoin="round"/>
<path d="M682.332 724.584C630.391 819.898 624.752 933.742 634.695 1041.81C644.638 1149.87 668.827 1256.6 672.241 1365.1" stroke="#4F5665" stroke-width="2.8" stroke-miterlimit="10" stroke-linecap="round" stroke-linejoin="round"/>
<path d="M675.952 1381.56C733.829 1372.22 792.151 1394.75 850.918 1395.19C886.386 1395.34 921.854 1387.34 957.174 1390.45C1011.04 1395.05 1061.5 1425.14 1115.52 1422.47" stroke="#4F5665" stroke-width="2.8" stroke-miterlimit="10" stroke-linecap="round" stroke-linejoin="round"/>
<path d="M1146.68 1262.82C1142.97 1313.81 1134.52 1364.51 1121.6 1413.87" stroke="#4F5665" stroke-width="2.8" stroke-miterlimit="10" stroke-linecap="round" stroke-linejoin="round"/>
<path d="M1041.47 869.411C1029.45 856.366 1021.88 839.171 1020.54 821.383C1031.52 826.571 1041.47 834.427 1048.89 844.063C1042.06 828.646 1039.24 811.599 1040.72 794.849C1041.02 791.736 1041.47 788.326 1043.84 786.103C1050.52 779.581 1060.46 789.957 1063.58 798.851C1086.14 862.444 1090.88 930.632 1099.64 997.486C1117.45 1134.16 1152.77 1268.61 1204.26 1396.38" stroke="#4F5665" stroke-width="2.8" stroke-miterlimit="10" stroke-linecap="round" stroke-linejoin="round"/>
<path d="M1205.01 1397.13C1247.45 1378.45 1299.69 1385.56 1337.68 1359.03" stroke="#4F5665" stroke-width="2.8" stroke-miterlimit="10" stroke-linecap="round" stroke-linejoin="round"/>
<path d="M1108.1 637.568C1168.35 653.133 1216.73 755.563 1233.65 814.561C1250.42 873.261 1252.79 935.223 1266 994.814C1279.95 1057.67 1305.77 1117.55 1319.27 1180.55C1331.59 1238.07 1333.22 1297.36 1335 1356.21" stroke="#4F5665" stroke-width="2.8" stroke-miterlimit="10" stroke-linecap="round" stroke-linejoin="round"/>
<path d="M1123.53 1064.34C1146.24 1065.67 1168.35 1075.31 1184.67 1091.17" stroke="#4F5665" stroke-width="2.8" stroke-miterlimit="10" stroke-linecap="round" stroke-linejoin="round"/>
<path d="M1138.97 1086.87C1148.91 1088.2 1158.11 1093.39 1164.35 1101.25" stroke="#4F5665" stroke-width="2.8" stroke-miterlimit="10" stroke-linecap="round" stroke-linejoin="round"/>
<path d="M1118.78 673.589C1133.48 683.372 1145.35 697.603 1152.32 713.76" stroke="#4F5665" stroke-width="2.8" stroke-miterlimit="10" stroke-linecap="round" stroke-linejoin="round"/>
<path d="M705.335 611.926C670.757 628.676 645.084 659.361 622.23 690.342C581.567 745.782 546.544 805.52 517.903 868.075C507.811 890.311 499.204 918.475 514.935 937.153C524.581 929.889 526.807 915.955 523.69 904.393C520.574 892.831 513.302 882.899 506.327 872.967C470.562 821.974 443.108 765.201 425.3 705.462" stroke="#4F5665" stroke-width="2.8" stroke-miterlimit="10" stroke-linecap="round" stroke-linejoin="round"/>
<path d="M421.443 695.528C373.063 703.088 326.91 724.434 289.958 756.453" stroke="#4F5665" stroke-width="2.8" stroke-miterlimit="10" stroke-linecap="round" stroke-linejoin="round"/>
<path d="M290.253 776.171C309.397 868.225 342.49 957.314 387.753 1039.73C399.477 1061.08 412.24 1082.13 429.751 1099.17C447.114 1116.22 469.968 1128.82 494.306 1130.01C519.386 1131.19 543.872 1119.93 563.313 1104.07C582.754 1088.2 598.039 1067.9 613.176 1047.88" stroke="#4F5665" stroke-width="2.8" stroke-miterlimit="10" stroke-linecap="round" stroke-linejoin="round"/>
<path d="M703.406 637.271C687.675 649.574 673.28 663.657 660.666 679.221" stroke="#4F5665" stroke-width="2.8" stroke-miterlimit="10" stroke-linecap="round" stroke-linejoin="round"/>
<path d="M307.766 767.865C332.104 748.446 360.3 733.919 390.426 725.766" stroke="#4F5665" stroke-width="2.8" stroke-miterlimit="10" stroke-linecap="round" stroke-linejoin="round"/>
<path d="M1214.35 1365.4C1241.66 1357.54 1269.41 1351.47 1297.61 1347.02" stroke="#4F5665" stroke-width="2.8" stroke-miterlimit="10" stroke-linecap="round" stroke-linejoin="round"/>
<path d="M698.657 1115.33C687.378 1181.15 690.495 1249.49 707.561 1314.12C804.171 1317.82 900.336 1330.57 994.423 1352.06" stroke="#4F5665" stroke-width="2.8" stroke-miterlimit="10" stroke-linecap="round" stroke-linejoin="round"/>
<path d="M1011.19 1327.9C1000.21 1266.82 998.282 1204.12 1005.41 1142.46C905.234 1116.37 801.055 1105.84 697.767 1111.18" stroke="#4F5665" stroke-width="2.8" stroke-miterlimit="10" stroke-linecap="round" stroke-linejoin="round"/>
<path d="M751.488 1274.09C770.039 1271.13 789.034 1271.72 807.436 1275.87" stroke="#4F5665" stroke-width="2.8" stroke-miterlimit="10" stroke-linecap="round" stroke-linejoin="round"/>
<path d="M741.991 1293.8C779.388 1282.54 818.418 1304.33 857.448 1307C874.069 1308.18 890.839 1305.81 907.46 1307.74" stroke="#4F5665" stroke-width="2.8" stroke-miterlimit="10" stroke-linecap="round" stroke-linejoin="round"/>
<path d="M672.389 1382.01C636.921 1516.45 601.453 1651.05 565.985 1785.5C549.809 1847.02 533.484 1910.17 540.905 1973.31C545.802 2014.23 560.345 2053.21 574.889 2091.75C640.779 2266.37 706.67 2440.99 772.709 2615.61C834.296 2577.81 921.853 2631.33 984.331 2595.31" stroke="#4F5665" stroke-width="2.8" stroke-miterlimit="10" stroke-linecap="round" stroke-linejoin="round"/>
<path d="M749.115 1497.48C767.368 1517.34 785.622 1537.21 803.727 1557.22C791.706 1594.43 787.106 1633.56 782.802 1672.25C774.788 1741.77 766.923 1811.29 758.909 1880.67C754.606 1918.32 750.302 1956.42 754.754 1994.07C766.329 2091.61 833.556 2171.65 878.818 2258.81C908.351 2315.88 928.83 2377.1 949.161 2438.03C968.454 2495.69 987.597 2553.36 1006.89 2611.02C1041.91 2584.04 1091.63 2597.97 1135.55 2602.72C1182.45 2607.76 1230.68 2600.35 1273.87 2581.52" stroke="#4F5665" stroke-width="2.8" stroke-miterlimit="10" stroke-linecap="round" stroke-linejoin="round"/>
<path d="M1125.91 1433.89C1108.69 1622.14 1071 1808.47 1013.86 1988.73" stroke="#4F5665" stroke-width="2.8" stroke-miterlimit="10" stroke-linecap="round" stroke-linejoin="round"/>
<path d="M724.627 1563.89C738.577 1561.07 752.527 1558.26 766.329 1555.44" stroke="#4F5665" stroke-width="2.8" stroke-miterlimit="10" stroke-linecap="round" stroke-linejoin="round"/>
<path d="M966.97 1394.31C982.255 1430.33 997.837 1466.5 1019.21 1499.41C1040.58 1532.17 1068.48 1561.66 1103.35 1579.45" stroke="#4F5665" stroke-width="2.8" stroke-miterlimit="10" stroke-linecap="round" stroke-linejoin="round"/>
<path d="M1001.1 1398.02C1023.36 1456.86 1061.35 1509.49 1110.03 1549.36" stroke="#4F5665" stroke-width="2.8" stroke-miterlimit="10" stroke-linecap="round" stroke-linejoin="round"/>
<path d="M648.498 1482.06C669.125 1466.2 686.489 1446.19 699.251 1423.51" stroke="#4F5665" stroke-width="2.8" stroke-miterlimit="10" stroke-linecap="round" stroke-linejoin="round"/>
<path d="M1225.04 1405.28C1225.78 1447.82 1220.44 1490.51 1209.61 1531.57C1208.72 1534.83 1207.83 1538.24 1208.72 1541.5C1209.61 1544.76 1213.02 1547.58 1216.28 1546.54C1218.06 1545.95 1219.4 1544.32 1220.59 1542.84C1236.02 1522.23 1247.45 1498.66 1254.13 1473.91" stroke="#4F5665" stroke-width="2.8" stroke-miterlimit="10" stroke-linecap="round" stroke-linejoin="round"/>
<path d="M1251.01 1449.16C1261.99 1491.55 1273.12 1534.09 1284.1 1576.49C1286.18 1584.64 1288.85 1593.54 1295.97 1598.28C1297.76 1599.47 1299.98 1600.36 1302.06 1599.76C1304.88 1599.02 1306.36 1596.06 1307.4 1593.24C1319.13 1560.33 1306.36 1524.31 1302.21 1489.62" stroke="#4F5665" stroke-width="2.8" stroke-miterlimit="10" stroke-linecap="round" stroke-linejoin="round"/>
<path d="M1319.13 1508.89C1328.63 1538.98 1340.05 1568.48 1353.26 1597.24C1354.15 1599.31 1355.93 1601.69 1358.01 1600.8C1358.9 1600.5 1359.34 1599.76 1359.94 1599.02C1363.05 1594.27 1364.98 1588.64 1365.58 1583.01C1365.73 1581.67 1365.87 1580.04 1367.06 1579.3C1368.25 1578.56 1369.88 1579.01 1371.22 1579.45C1377.15 1580.79 1383.09 1576.78 1386.2 1571.6C1389.17 1566.41 1389.91 1560.18 1390.66 1554.25" stroke="#4F5665" stroke-width="2.8" stroke-miterlimit="10" stroke-linecap="round" stroke-linejoin="round"/>
<path d="M1345.99 1494.37C1352.82 1520.01 1360.98 1545.36 1370.62 1570.11" stroke="#4F5665" stroke-width="2.8" stroke-miterlimit="10" stroke-linecap="round" stroke-linejoin="round"/>
<path d="M1365.13 1473.91C1371.36 1499.11 1379.23 1523.86 1388.43 1548.17" stroke="#4F5665" stroke-width="2.8" stroke-miterlimit="10" stroke-linecap="round" stroke-linejoin="round"/>
<path d="M1407.72 1518.08C1392.29 1489.47 1375.82 1461.46 1358.01 1434.18" stroke="#4F5665" stroke-width="2.8" stroke-miterlimit="10" stroke-linecap="round" stroke-linejoin="round"/>
<path d="M1346.14 1378.59C1350.74 1397.12 1354.74 1415.8 1357.86 1434.63" stroke="#4F5665" stroke-width="2.8" stroke-miterlimit="10" stroke-linecap="round" stroke-linejoin="round"/>
<path d="M313.702 539.436C313.108 523.872 317.412 508.159 325.871 495.262C328.69 490.964 333.439 486.368 338.336 488.147C341.898 489.333 343.531 493.335 344.569 496.893C347.983 509.493 346.795 522.834 349.466 535.582C352.435 549.368 360.003 561.671 366.236 574.271C382.412 607.179 389.832 644.238 387.606 680.852" stroke="#4F5665" stroke-width="2.8" stroke-miterlimit="10" stroke-linecap="round" stroke-linejoin="round"/>
<path d="M239.945 574.271C239.352 548.33 241.132 522.241 245.584 496.596C247.365 486.22 249.74 475.547 256.418 467.394C258.05 465.319 260.722 463.391 263.244 464.133C265.47 464.726 266.509 467.097 267.251 469.321C272.742 484.589 274.968 500.895 273.484 517.052C272.445 527.874 269.923 539.436 274.672 549.367" stroke="#4F5665" stroke-width="2.8" stroke-miterlimit="10" stroke-linecap="round" stroke-linejoin="round"/>
<path d="M321.418 550.554C302.719 550.702 284.169 554.111 266.806 560.782C264.877 561.523 262.947 562.264 261.463 563.598C259.979 564.933 258.792 566.711 257.753 568.342C246.475 587.02 236.829 606.586 228.667 626.895" stroke="#4F5665" stroke-width="2.8" stroke-miterlimit="10" stroke-linecap="round" stroke-linejoin="round"/>
<path d="M270.072 583.91C259.684 601.55 250.335 619.783 242.173 638.46" stroke="#4F5665" stroke-width="2.8" stroke-miterlimit="10" stroke-linecap="round" stroke-linejoin="round"/>
<path d="M284.169 572.938C295.744 567.453 308.507 564.34 321.269 563.747" stroke="#4F5665" stroke-width="2.8" stroke-miterlimit="10" stroke-linecap="round" stroke-linejoin="round"/>
<path d="M282.092 590.432C273.039 607.33 264.877 624.822 257.754 642.758C255.824 647.798 253.747 652.986 254.637 658.323C255.528 664.549 259.98 669.737 264.283 674.332C276.452 687.673 288.621 700.866 300.79 714.207" stroke="#4F5665" stroke-width="2.8" stroke-miterlimit="10" stroke-linecap="round" stroke-linejoin="round"/>
<path d="M296.339 583.762C310.14 582.872 323.942 582.428 337.743 582.428" stroke="#4F5665" stroke-width="2.8" stroke-miterlimit="10" stroke-linecap="round" stroke-linejoin="round"/>
<path d="M299.751 638.314C300.939 631.347 302.126 624.38 303.313 617.413C303.462 616.375 303.758 615.338 304.352 614.596C305.094 613.855 306.133 613.559 307.172 613.411C311.475 612.521 315.779 611.78 320.083 610.891" stroke="#4F5665" stroke-width="2.8" stroke-miterlimit="10" stroke-linecap="round" stroke-linejoin="round"/>
<path d="M328.098 604.66C325.575 615.629 324.981 627.192 326.317 638.309" stroke="#4F5665" stroke-width="2.8" stroke-miterlimit="10" stroke-linecap="round" stroke-linejoin="round"/>
<path d="M351.098 590.286C354.956 596.957 354.066 605.406 352.73 613.114C350.801 623.935 347.981 634.608 344.568 645.133" stroke="#4F5665" stroke-width="2.8" stroke-miterlimit="10" stroke-linecap="round" stroke-linejoin="round"/>
<path d="M283.13 641.274C298.861 636.531 316.076 637.123 331.361 643.053C346.647 648.982 359.854 660.1 368.165 674.182" stroke="#4F5665" stroke-width="2.8" stroke-miterlimit="10" stroke-linecap="round" stroke-linejoin="round"/>
<path d="M498.017 320.941C514.934 311.454 532.743 303.449 551.144 297.075" stroke="#4F5665" stroke-width="2.8" stroke-miterlimit="10" stroke-linecap="round" stroke-linejoin="round"/>
<path d="M511.818 369.268C527.846 366.748 544.022 364.376 560.049 361.856" stroke="#4F5665" stroke-width="2.8" stroke-miterlimit="10" stroke-linecap="round" stroke-linejoin="round"/>
<path d="M511.818 421C527.994 424.409 544.17 428.56 560.049 433.452" stroke="#4F5665" stroke-width="2.8" stroke-miterlimit="10" stroke-linecap="round" stroke-linejoin="round"/>
<path d="M143.335 326.275C125.379 320.346 107.274 314.713 89.1685 309.672" stroke="#4F5665" stroke-width="2.8" stroke-miterlimit="10" stroke-linecap="round" stroke-linejoin="round"/>
<path d="M77.8905 385.424C77.5937 385.424 77.2968 385.424 77 385.424C93.3242 383.349 109.648 382.608 126.121 382.904" stroke="#4F5665" stroke-width="2.8" stroke-miterlimit="10" stroke-linecap="round" stroke-linejoin="round"/>
<path d="M82.6382 449.312C97.9237 442.494 113.654 436.861 129.83 432.414" stroke="#4F5665" stroke-width="2.8" stroke-miterlimit="10" stroke-linecap="round" stroke-linejoin="round"/>
<path d="M791.408 568.79C782.208 571.459 774.491 578.426 770.929 587.32C767.367 596.214 768.258 606.59 773.155 614.891C776.271 620.079 780.724 624.23 783.84 629.27C784.582 609.258 787.55 589.395 792.596 569.976" fill="#4F5665"/>
<path d="M791.408 568.79C782.208 571.459 774.491 578.426 770.929 587.32C767.367 596.214 768.258 606.59 773.155 614.891C776.271 620.079 780.724 624.23 783.84 629.27C784.582 609.258 787.55 589.395 792.596 569.976" stroke="#4F5665" stroke-width="2.8" stroke-miterlimit="10" stroke-linecap="round" stroke-linejoin="round"/>
<path d="M962.517 567.304C963.704 586.575 957.174 605.252 954.948 624.375C969.047 624.375 975.428 611.033 977.951 599.619C980.474 588.057 975.577 575.161 965.634 568.786C971.421 572.344 974.835 578.422 977.506 584.648C979.732 589.688 981.661 595.32 980.623 600.805C979.435 606.883 974.983 611.775 970.679 616.222C978.545 600.212 976.17 579.756 965.04 565.822" fill="#4F5665"/>
<path d="M962.517 567.304C963.704 586.575 957.174 605.252 954.948 624.375C969.047 624.375 975.428 611.033 977.951 599.619C980.474 588.057 975.577 575.161 965.634 568.786C971.421 572.344 974.835 578.422 977.506 584.648C979.732 589.688 981.661 595.32 980.623 600.805C979.435 606.883 974.983 611.775 970.679 616.222C978.545 600.212 976.17 579.756 965.04 565.822" stroke="#4F5665" stroke-width="2.8" stroke-miterlimit="10" stroke-linecap="round" stroke-linejoin="round"/>
<path d="M305.688 491.852C328.838 494.372 349.615 477.769 352.137 454.645C354.66 431.52 338.039 410.767 314.889 408.247C291.738 405.728 270.961 422.33 268.439 445.454C265.916 468.431 282.537 489.332 305.688 491.852Z" stroke="#4F5665" stroke-width="2.8" stroke-miterlimit="10" stroke-linecap="round" stroke-linejoin="round"/>
<path d="M292.776 439.528C298.86 429.3 312.81 426.484 322.456 433.599C331.954 440.566 333.587 454.796 325.573 463.69C321.269 468.582 314.591 471.102 308.061 470.361" stroke="#4F5665" stroke-width="2.8" stroke-miterlimit="10" stroke-linecap="round" stroke-linejoin="round"/>
<path d="M303.61 407.06L311.624 333.24" stroke="#4F5665" stroke-width="2.8" stroke-miterlimit="10" stroke-linecap="round" stroke-linejoin="round"/>
<path d="M337.298 309.817L325.723 409.579" stroke="#4F5665" stroke-width="2.8" stroke-miterlimit="10" stroke-linecap="round" stroke-linejoin="round"/>
<path d="M311.773 332.5L275.711 328.646L278.531 303.297L336.704 309.672" stroke="#4F5665" stroke-width="2.8" stroke-miterlimit="10" stroke-linecap="round" stroke-linejoin="round"/>
</g>
<defs>
<clipPath id="clip0">
<rect width="1444" height="1683" fill="white"/>
</clipPath>
</defs>
</svg>
