<svg xmlns="http://www.w3.org/2000/svg" xmlns:xlink="http://www.w3.org/1999/xlink" viewBox="0 0 1488.28 656.96"><defs><style>.cls-1{fill:url(#linear-gradient);}.cls-2{fill:url(#linear-gradient-2);}.cls-3{fill:url(#linear-gradient-3);}.cls-4{fill:#60f0ae;}.cls-5{fill:url(#linear-gradient-4);}.cls-6{fill:#60d9f7;}.cls-7{fill:#8ec752;}.cls-8{fill:#f4ce2b;}.cls-9{fill:url(#linear-gradient-5);}.cls-10{fill:url(#linear-gradient-6);}.cls-11{fill:url(#linear-gradient-7);}.cls-12{fill:#4cb1c0;}.cls-13{fill:#f56356;}</style><linearGradient id="linear-gradient" x1="-6052.58" y1="-5550.01" x2="-6052.58" y2="-5548.86" gradientTransform="matrix(57.88, -27.31, -99, -209.82, -198011.56, -1329510.22)" gradientUnits="userSpaceOnUse"><stop offset="0" stop-color="#1affcf" stop-opacity="0.74"/><stop offset="1" stop-color="#3688df"/></linearGradient><linearGradient id="linear-gradient-2" x1="794.58" y1="1384.21" x2="870.03" y2="1384.21" gradientTransform="matrix(0.9, -0.43, 0.43, 0.9, -351.2, -853.5)" xlink:href="#linear-gradient"/><linearGradient id="linear-gradient-3" x1="-6049.56" y1="-5553.42" x2="-6049.56" y2="-5551.17" gradientTransform="matrix(50.13, 39.78, 94.48, -119.07, 829177.4, -420075.74)" gradientUnits="userSpaceOnUse"><stop offset="0" stop-color="#69f7ae"/><stop offset="1" stop-color="#10aeaf"/></linearGradient><linearGradient id="linear-gradient-4" x1="144.21" y1="510.14" x2="348.44" y2="510.14" gradientUnits="userSpaceOnUse"><stop offset="0" stop-color="#69e0f7"/><stop offset="1" stop-color="#1090f3"/></linearGradient><linearGradient id="linear-gradient-5" x1="-16884.4" y1="93.37" x2="-16624.12" y2="93.37" gradientTransform="matrix(-1, 0, 0, 1, -16121.12, 0)" gradientUnits="userSpaceOnUse"><stop offset="0" stop-color="#ccc" stop-opacity="0.25"/><stop offset="1" stop-color="#999" stop-opacity="0"/></linearGradient><linearGradient id="linear-gradient-6" x1="122.07" y1="615.71" x2="262.44" y2="615.71" gradientTransform="matrix(1, 0, 0, 1, 0, 0)" xlink:href="#linear-gradient-5"/><linearGradient id="linear-gradient-7" x1="38.2" y1="93.37" x2="141.8" y2="93.37" gradientTransform="matrix(1, 0, 0, 1, 0, 0)" xlink:href="#linear-gradient-5"/></defs><title>background</title><g id="Layer_2" data-name="Layer 2"><g id="Items"><g id="Chart"><polygon id="Path-2" class="cls-1" points="984.13 26.14 1026.3 27.11 1126.92 240.35 1100.85 273.51 1058.68 272.55 958.06 59.3 984.13 26.14"/><polygon id="Path-2-2" data-name="Path-2" class="cls-2" points="984.13 26.14 1026.3 27.11 1000.23 60.26 958.06 59.3 984.13 26.14"/></g><g id="Chart-2" data-name="Chart"><polygon id="Path-2-3" data-name="Path-2" class="cls-3" points="1408.91 215.69 1443.94 290.8 1271.16 508.54 1190.06 491.49 1155.03 416.39 1327.81 198.65 1408.91 215.69"/><polygon id="Path-2-4" data-name="Path-2" class="cls-4" points="1408.91 215.69 1443.94 290.8 1362.84 273.76 1327.81 198.65 1408.91 215.69"/></g><polygon class="cls-5" points="246.31 449.49 144.21 474.42 144.21 511.83 246.34 570.8 348.44 511.85 348.44 474.44 246.31 449.49"/><polygon class="cls-6" points="144.21 474.11 246.31 415.19 348.44 474.13 246.34 533.07 144.21 474.11"/><circle class="cls-7" cx="1448.24" cy="463.37" r="16.82"/><polygon class="cls-8" points="1437.55 372.91 1443.25 344.32 1465.97 363.72 1488.29 383.03 1460.07 392.26 1431.85 401.49 1437.55 372.91"/><polygon class="cls-8" points="131.13 255.31 112.1 249.62 126.71 235.44 141.23 221.53 145.7 241.26 150.17 261 131.13 255.31"/><path id="_Path_" data-name="&lt;Path&gt;" class="cls-9" d="M544,87.81c.31,0,.61,0,.91,0a50.38,50.38,0,0,1,81.89-48,41,41,0,0,1,77.45,12.83h.38a58.63,58.63,0,0,1,0,117.25H544a41,41,0,1,1,0-82.07Z"/><path id="_Path_2" data-name="&lt;Path&gt;" class="cls-10" d="M240.31,612.7c-.17,0-.33,0-.49,0a27.14,27.14,0,0,0-26.7-32.27,27.13,27.13,0,0,0-17.47,6.36,22.1,22.1,0,0,0-41.76,6.92h-.21a31.61,31.61,0,1,0,0,63.22h86.63a22.13,22.13,0,1,0,0-44.26Z"/><path id="_Path_3" data-name="&lt;Path&gt;" class="cls-11" d="M54.54,91.16l.36,0A20,20,0,0,1,74.6,67.36a20,20,0,0,1,12.89,4.7,16.32,16.32,0,0,1,30.83,5.1h.15a23.33,23.33,0,1,1,0,46.66H54.54a16.33,16.33,0,1,1,0-32.66Z"/><rect class="cls-12" x="-1.14" y="297.71" width="23.85" height="6.65" transform="translate(-209.71 95.8) rotate(-45)"/><rect class="cls-12" x="7.46" y="289.11" width="6.65" height="23.85" transform="translate(-209.71 95.8) rotate(-45)"/><circle class="cls-7" cx="139.1" cy="328.21" r="9.22"/><polygon class="cls-8" points="1448.48 75.8 1434.36 71.58 1445.19 61.07 1455.96 50.75 1459.28 65.38 1462.59 80.02 1448.48 75.8"/><rect class="cls-13" x="1089.91" y="3.14" width="15.15" height="15.15" transform="translate(329.02 -772.9) rotate(45)"/><polygon class="cls-7" points="108.71 421.99 97.51 403.22 103.9 399.41 112.21 413.35 130.6 408.4 141.8 427.17 135.42 430.98 127.1 417.04 108.71 421.99"/></g></g></svg>