<svg id="Layer_1" data-name="Layer 1" xmlns="http://www.w3.org/2000/svg" viewBox="0 0 400 300" width="406" height="306" class="illustration styles_illustrationTablet__1DWOa"><title>_</title><ellipse cx="199.89" cy="248.75" rx="137.87" ry="13.24" fill="#e6e6e6" opacity="0.45"></ellipse><rect x="310.77" y="175.73" width="11.65" height="71.31" fill="#c9c9c9"></rect><rect x="80.63" y="175.73" width="11.65" height="71.31" fill="#c9c9c9"></rect><rect x="68.65" y="169.44" width="265.75" height="6.3" fill="#c9c9c9"></rect><rect x="65.07" y="160.82" width="272.91" height="8.62" fill="#e6e6e6"></rect><polygon points="280.76 140.79 278.01 158.27 296.36 158.27 292.14 140.79 280.76 140.79" fill="#c9c9c9"></polygon><rect x="273.82" y="155.2" width="25.8" height="5.62" fill="#e6e6e6"></rect><rect x="244.09" y="92.54" width="83.92" height="54.53" fill="#e6e6e6"></rect><rect x="247.1" y="95.37" width="77.53" height="43.67" fill="#24285b"></rect><circle cx="287.02" cy="142.8" r="1.59" fill="#a5a5a5"></circle><polygon points="192.38 140.79 189.62 158.27 207.97 158.27 203.75 140.79 192.38 140.79" fill="#c9c9c9"></polygon><rect x="185.44" y="155.2" width="25.8" height="5.62" fill="#e6e6e6"></rect><rect x="155.7" y="92.54" width="83.92" height="54.53" fill="#e6e6e6"></rect><rect x="158.71" y="95.37" width="77.53" height="43.67" fill="#24285b"></rect><circle cx="198.63" cy="142.8" r="1.59" fill="#a5a5a5"></circle><polygon points="103.99 140.79 101.24 158.27 119.58 158.27 115.37 140.79 103.99 140.79" fill="#c9c9c9"></polygon><rect x="97.05" y="155.2" width="25.8" height="5.62" fill="#e6e6e6"></rect><rect x="67.31" y="92.54" width="83.92" height="54.53" fill="#e6e6e6"></rect><rect x="70.32" y="95.37" width="77.53" height="43.67" fill="#24285b"></rect><circle cx="110.24" cy="142.8" r="1.59" fill="#a5a5a5"></circle><rect x="199.89" y="38.02" width="83.92" height="54.53" fill="#e6e6e6"></rect><rect x="202.9" y="40.85" width="77.53" height="43.67" fill="#24285b"></rect><circle cx="242.82" cy="88.28" r="1.59" fill="#a5a5a5"></circle><rect x="111.51" y="38.02" width="83.92" height="54.53" fill="#e6e6e6"></rect><rect x="114.52" y="40.85" width="77.53" height="43.67" fill="#24285b"></rect><circle cx="154.44" cy="88.28" r="1.59" fill="#a5a5a5"></circle><path d="M249.93,113.83s-13.1.46-19.07,23.67c-3.91,15.19-54.76,16.9-54.76,16.9v5.53h54.6a22.76,22.76,0,0,0,18.63-9.4,19.91,19.91,0,0,0,1.85-3.17C254.79,139.51,262.38,118.07,249.93,113.83Z" fill="#00add3"></path><path d="M249.93,113.83s-13.1.46-19.07,23.67c-3.91,15.19-54.76,16.9-54.76,16.9v5.53h54.6a22.76,22.76,0,0,0,18.63-9.4,19.91,19.91,0,0,0,1.85-3.17C254.79,139.51,262.38,118.07,249.93,113.83Z" opacity="0.08"></path><path d="M238,248.58s-.59,3.11-3.22,3.76-2.91,3.36-.41,3.66,8.19-3.75,8.19-3.75l-1-4.85Z" fill="#00add3"></path><path d="M260.49,248.58s-.6,3.11-3.22,3.76-2.92,3.36-.42,3.66,8.2-3.75,8.2-3.75l-1-4.85Z" fill="#00add3"></path><rect x="276.36" y="207.01" width="7.75" height="41.73" fill="#ffd200"></rect><rect x="276.36" y="207.01" width="7.75" height="41.73" opacity="0.08"></rect><polygon points="294.13 163.36 294.06 169.44 293.99 175.74 222.36 175.74 226.42 169.44 231.98 160.82 258.73 160.82 294.13 163.36" opacity="0.08"></polygon><path d="M262.91,183.71s-8.55-56.82,11.42-66.6,52.16-.73,37.49,69.53l-.73,7.81a20.32,20.32,0,0,1-20.24,18.44H250.33c-7.44,0-9.71-10.18-2.94-13.25a35.7,35.7,0,0,1,7.25-2.34,10,10,0,0,0,7.81-8.79Z" fill="#ffd200"></path><path d="M252.3,86.15a29.18,29.18,0,0,0,.51,7.79,2.36,2.36,0,0,0,2.91,1.65,5.23,5.23,0,0,0,4-4l1.33-4.13A4.2,4.2,0,0,0,259.13,83C256.45,81.14,252.36,83.28,252.3,86.15Z" fill="#f4a28c"></path><polygon points="260.25 88.66 264.68 103.41 256.37 105.27 256.49 93.79 260.25 88.66" fill="#f4a28c"></polygon><path d="M252.24,89.11,251,90.94a.76.76,0,0,0,.49,1.18l1.81.31Z" fill="#f4a28c"></path><path d="M256.5,95.32a7.23,7.23,0,0,0,2.93-2.07s.41,3-3,5.44Z" fill="#ce8172" opacity="0.31"></path><path d="M259,88.2l.41.17a4.36,4.36,0,0,0,1.3.14,2.24,2.24,0,0,0,.89-.13c1.11-.51,1.13-2.32,1.21-3.37a6.17,6.17,0,0,0-.58-3.71c-1.49-2.43-9.29-4.34-10.89,1.06-1,3.46,2.28,4.07,4.79,4.06.85,0,1.42.78,2.06,1.26A6.2,6.2,0,0,0,259,88.2Z" fill="#ffd200"></path><path d="M256.92,88.87s0-1.81,1.36-1.69,1.37,2.73-.47,3Z" fill="#f4a28c"></path><path d="M254.81,105.64,262,104s45-5.54,39.21,36.86c-5.42,39.79-9.38,50.18-9.38,50.18l-40.53,1.36s-2.26-33.73-8.78-42.2S223.14,116.78,254.81,105.64Z" fill="#00add3"></path><path d="M252.13,106.66s-3,40.62,9.82,58.64c0,0-.72-42.78,10.27-61.25C272.22,104.05,262,101.22,252.13,106.66Z" fill="#fff"></path><path d="M249.53,176.11l-19,19.42a26.94,26.94,0,0,0-5.19,30.14L236,248.75l5.5-1.35-5.29-20.74a19.56,19.56,0,0,1,9-21.7L267,192.15Z" fill="#24285b"></path><path d="M249.53,176.11l44.6,2.64s-.07,15.81-5.38,19.39c-2.94,2-13.87,5.91-23,9a14.37,14.37,0,0,0-9,18.16l7.36,22.08-6.25,1.65L244.34,222.6A18.7,18.7,0,0,1,249,199.76l13.45-11.25Z" fill="#24285b"></path><path d="M276.16,120.6a10.5,10.5,0,0,1,16.33-9.46,23.66,23.66,0,0,1,7.71,8.38C304,126.64,306,142.44,307,154.7a25.15,25.15,0,0,1-12.88,24.05l-26.28,14.52-3.79-4.94L284,172.75a13.52,13.52,0,0,0,3.58-17.14C283,147.12,277.13,134.07,276.16,120.6Z" fill="#00add3"></path><path d="M276.16,120.6a10.5,10.5,0,0,1,16.33-9.46,23.66,23.66,0,0,1,7.71,8.38C304,126.64,306,142.44,307,154.7a25.15,25.15,0,0,1-12.88,24.05l-26.28,14.52-3.79-4.94L284,172.75a13.52,13.52,0,0,0,3.58-17.14C283,147.12,277.13,134.07,276.16,120.6Z" fill="#fff" opacity="0.19"></path><path d="M264.06,188.33s-9.06,5-4.05,7.64,7-3.82,7-3.82Z" fill="#f4a28c"></path><path d="M252.13,106.66l-8.08,22.88,6.42,11.08-2.38,10.68,13.86,14S250.47,155,252.13,106.66Z" fill="#fff" opacity="0.27"></path><path d="M256.47,105.08c0-1.17.81-1,1.93-1.28s2.28-1.56,3.25-.49c1.88,2.09-1.44,6-1.44,6h-3.07A17.29,17.29,0,0,1,256.47,105.08Z" fill="#24285b"></path><path d="M257.14,109.33h3.07s.29,23.78,2.31,37.84L262,165.3a44.25,44.25,0,0,1-7.67-20.15S254.59,122.88,257.14,109.33Z" fill="#24285b"></path><path d="M252.13,106.66l3.75,2.67,3-4.36,3.14,3.89,10.19-4.81S259.89,99.06,252.13,106.66Z" fill="#00add3"></path><path d="M252.13,106.66l3.75,2.67,3-4.36,3.14,3.89,10.19-4.81S259.89,99.06,252.13,106.66Z" fill="#fff" opacity="0.55"></path><path d="M272.22,104.05l1.7,30.26L266,139.05l4.69,9.85L262,165.3S261.42,122.28,272.22,104.05Z" fill="#fff" opacity="0.27"></path><path d="M176.1,155.63s-8.75-1.58-7.94,4.3h7.94Z" fill="#f4a28c"></path><polygon points="276.36 242.09 284.11 242.09 296.6 256.02 265.05 256.02 276.36 242.09" fill="#ffd200"></polygon><polygon points="276.36 242.09 284.11 242.09 296.6 256.02 265.05 256.02 276.36 242.09" fill="#fff" opacity="0.33"></polygon><path d="M117.25,236.32s-7.9-2.16-9.61-9.51c0,0,12.23-2.48,12.58,10.16Z" fill="#00add3" opacity="0.58"></path><path d="M118.22,235.53s-5.52-8.72-.66-16.88c0,0,9.31,5.91,5.17,16.9Z" fill="#00add3" opacity="0.73"></path><path d="M119.64,235.54s2.92-9.22,11.73-11c0,0,1.66,6-5.7,11Z" fill="#00add3"></path><polygon points="113.92 235.33 115.52 246.29 125.6 246.33 127.09 235.39 113.92 235.33" fill="#24285b"></polygon></svg>