<svg xmlns="http://www.w3.org/2000/svg" xmlns:xlink="http://www.w3.org/1999/xlink" viewBox="0 0 1239.2 550.57"><defs><style>.cls-1{fill:url(#linear-gradient);}.cls-2{fill:url(#linear-gradient-2);}.cls-3{fill:url(#linear-gradient-3);}.cls-4,.cls-6{fill:#ffed49;}.cls-5,.cls-6{opacity:0.9;}.cls-5{fill:url(#linear-gradient-4);}</style><linearGradient id="linear-gradient" x1="686.87" y1="1742.45" x2="834.62" y2="1742.45" gradientTransform="translate(-761.12 -704.04) rotate(-42.87)" gradientUnits="userSpaceOnUse"><stop offset="0" stop-color="#1affcf" stop-opacity="0.74"/><stop offset="1" stop-color="#3688df"/></linearGradient><linearGradient id="linear-gradient-2" x1="686.87" y1="1735.21" x2="834.62" y2="1735.21" xlink:href="#linear-gradient"/><linearGradient id="linear-gradient-3" x1="-6255.02" y1="-5696.69" x2="-6255.02" y2="-5695.8" gradientTransform="matrix(25.93, -58.51, -74.97, -33.23, -264781.49, -554960.93)" gradientUnits="userSpaceOnUse"><stop offset="0" stop-color="#ffef4a"/><stop offset="0.86" stop-color="#f49918"/><stop offset="1" stop-color="#f38b10"/></linearGradient><linearGradient id="linear-gradient-4" x1="-6225.41" y1="-5679.24" x2="-6225.41" y2="-5677.16" gradientTransform="matrix(54.58, -33.42, -42.82, -69.93, 97837.77, -604665.78)" xlink:href="#linear-gradient-3"/></defs><title>on top of browser</title><g id="Layer_2" data-name="Layer 2"><g id="Items"><polygon class="cls-1" points="948.94 18.03 922.74 100.5 932.59 111.11 1015.76 92.11 1040.89 10.61 1031.04 0 948.94 18.03"/><polygon class="cls-2" points="922.74 100.5 947.88 19.01 1031.04 0 1005.91 81.5 922.74 100.5"/><polygon class="cls-3" points="67.25 272.4 25.32 253.81 26.84 286.6 1.52 307.49 43.46 326.08 68.78 305.19 67.25 272.4"/><polygon class="cls-4" points="25.32 253.81 0 274.71 1.52 307.49 26.84 286.6 25.32 253.81"/><polygon class="cls-5" points="1183.13 387.2 1142.46 452.4 1065.9 458.98 1121.97 550.57 1198.53 543.99 1239.2 478.79 1183.13 387.2"/><polygon class="cls-6" points="1183.13 387.2 1106.57 393.78 1065.9 458.98 1142.46 452.4 1183.13 387.2"/></g></g></svg>